<?xml version="1.0" encoding="UTF-8" standalone="no"?>
<!-- Created with Inkscape (http://www.inkscape.org/) -->

<svg
   version="1.1"
   id="svg2"
   width="360"
   height="360"
   viewBox="0 0 360 360"
   sodipodi:docname="ivso.svg"
   inkscape:version="1.2.2 (b0a8486541, 2022-12-01)"
   xml:space="preserve"
   xmlns:inkscape="http://www.inkscape.org/namespaces/inkscape"
   xmlns:sodipodi="http://sodipodi.sourceforge.net/DTD/sodipodi-0.dtd"
   xmlns="http://www.w3.org/2000/svg"
   xmlns:svg="http://www.w3.org/2000/svg"><defs
     id="defs6" /><sodipodi:namedview
     id="namedview4"
     pagecolor="#ffffff"
     bordercolor="#cccccc"
     borderopacity="1"
     inkscape:showpageshadow="0"
     inkscape:pageopacity="1"
     inkscape:pagecheckerboard="0"
     inkscape:deskcolor="#d1d1d1"
     showgrid="false"
     inkscape:zoom="0.70710678"
     inkscape:cx="-11.313708"
     inkscape:cy="332.34019"
     inkscape:window-width="1920"
     inkscape:window-height="1011"
     inkscape:window-x="0"
     inkscape:window-y="0"
     inkscape:window-maximized="1"
     inkscape:current-layer="g8" /><g
     inkscape:groupmode="layer"
     inkscape:label="Image"
     id="g8"><path
       id="path308"
       style="fill:#000000;stroke:none;stroke-width:0.762712px;stroke-linecap:butt;stroke-linejoin:miter;stroke-opacity:1"
       d="M 74.428349,7.1146027 65.634442,34.902861 C 108.6028,30.857197 166.77639,37.174254 191.31276,72.245193 215.34204,40.024328 261.77817,29.020816 296.06156,35.752878 L 285.60575,7.1146027 c -69.05971,-1e-6 -142.11769,-4.1e-6 -211.177401,0 z M 272.56898,68.929193 c -30.76933,-0.984775 -53.73574,27.294764 -58.40315,55.640707 -4.28704,22.29242 -2.39996,51.01111 19.84651,63.20109 21.96469,9.1725 50.44406,4.35903 65.12418,-15.41924 16.31064,-19.60332 20.6667,-47.08264 17.07308,-71.7624 -3.32896,-17.964363 -19.64469,-31.226983 -37.81837,-31.505489 l -2.87506,-0.144072 z M 90.059208,79.5581 c -17.754051,-1.50947 -40.481719,3.713882 -46.582031,22.70508 -5.78131,16.49214 10.533206,28.15391 24.284051,31.50946 33.929062,10.89338 80.234492,18.39959 102.847962,40.41161 -6.97239,-17.73352 -5.93297,-43.42784 -0.18624,-62.07228 l -26.1149,-0.06 c -1.6683,-5.96264 -3.64129,-10.56425 -6.05583,-13.193606 C 127.7524,83.53116 107.48109,79.425407 90.059208,79.5581 Z m -70.273296,94.46782 c -5.891847,13.46229 -12.4158686,30.16457 -12.7862548,45.49074 0.318723,21.15439 19.3082248,37.36712 38.9935238,40.99715 31.201072,4.79965 35.484099,1.50193 46.604571,1.07822 23.338258,-0.88924 47.197568,-25.54575 28.426068,-48.08275 C 103.75,196.16009 79.035419,195.02271 56.91507,187.40715 45.097117,183.94543 31.144936,178.65728 19.785912,174.02592 Z M 343.5807,185.14208 c -14.95246,18.81772 -36.56266,33.71986 -60.71875,38.21094 -35.88413,5.25465 -63.26926,5.13976 -92.22607,-17.58076 7.57821,53.2349 -22.57216,89.3446 -87.77198,101.38545 22.17043,13.85704 38.99762,32.25705 62.87987,43.17649 15.94788,5.44359 26.57103,1.18012 36.95386,-3.52145 40.68553,-29.13946 94.86886,-68.13666 135.17942,-97.72979 19.90044,-16.789 18.39124,-44.83774 5.70365,-63.94088 z"
       sodipodi:nodetypes="cccccccccccccccccccccccccsccccccccccc" /></g></svg>
