<?xml version="1.0" encoding="UTF-8" standalone="no"?>
<!-- Created with Inkscape (http://www.inkscape.org/) -->

<svg
   width="100mm"
   height="100mm"
   viewBox="0 0 100 100"
   version="1.1"
   id="svg398"
   inkscape:version="1.2.2 (b0a8486541, 2022-12-01)"
   sodipodi:docname="logo.svg"
   xmlns:inkscape="http://www.inkscape.org/namespaces/inkscape"
   xmlns:sodipodi="http://sodipodi.sourceforge.net/DTD/sodipodi-0.dtd"
   xmlns="http://www.w3.org/2000/svg"
   xmlns:svg="http://www.w3.org/2000/svg">
  <sodipodi:namedview
     id="namedview400"
     pagecolor="#ffffff"
     bordercolor="#cccccc"
     borderopacity="1"
     inkscape:showpageshadow="0"
     inkscape:pageopacity="1"
     inkscape:pagecheckerboard="0"
     inkscape:deskcolor="#d1d1d1"
     inkscape:document-units="mm"
     showgrid="false"
     showguides="true"
     inkscape:zoom="1"
     inkscape:cx="374"
     inkscape:cy="181"
     inkscape:window-width="1920"
     inkscape:window-height="1011"
     inkscape:window-x="0"
     inkscape:window-y="0"
     inkscape:window-maximized="1"
     inkscape:current-layer="layer1" />
  <defs
     id="defs395" />
  <g
     inkscape:label="NUTRI.VIN"
     inkscape:groupmode="layer"
     id="layer1">
    <g
       id="QRcode"
       transform="matrix(3.8460981,0,0,3.8461305,1.9230491,1.9230653)"
       style="opacity:0.54;fill:none;fill-opacity:1;stroke:#208060;stroke-opacity:1">
      <path
         style="fill:none;fill-opacity:1;stroke:#208060;stroke-opacity:1"
         transform="translate(0,0.5)"
         d="m 0,0 h 1 m 0,0 h 1 m 0,0 h 1 m 0,0 h 1 m 0,0 h 1 m 0,0 h 1 m 0,0 h 1 m 1,0 h 1 m 5,0 h 1 m 0,0 h 1 m 2,0 h 1 m 0,0 h 1 m 0,0 h 1 m 0,0 h 1 m 0,0 h 1 m 0,0 h 1 m 0,0 h 1 M 0,1 h 1 m 5,0 h 1 m 1,0 h 1 m 2,0 h 1 m 0,0 h 1 m 5,0 h 1 m 5,0 h 1 M 0,2 h 1 m 1,0 h 1 m 0,0 h 1 m 0,0 h 1 m 1,0 h 1 m 1,0 h 1 m 0,0 h 1 m 2,0 h 1 m 1,0 h 1 m 3,0 h 1 m 1,0 h 1 m 0,0 h 1 m 0,0 h 1 m 1,0 h 1 M 0,3 h 1 m 1,0 h 1 m 0,0 h 1 m 0,0 h 1 m 1,0 h 1 m 1,0 h 1 m 0,0 h 1 m 0,0 h 1 m 1,0 h 1 m 3,0 h 1 m 1,0 h 1 m 1,0 h 1 m 0,0 h 1 m 0,0 h 1 m 1,0 h 1 M 0,4 h 1 m 1,0 h 1 m 0,0 h 1 m 0,0 h 1 m 1,0 h 1 m 2,0 h 1 m 0,0 h 1 m 1,0 h 1 m 1,0 h 1 m 0,0 h 1 m 0,0 h 1 m 1,0 h 1 m 1,0 h 1 m 0,0 h 1 m 0,0 h 1 m 1,0 h 1 M 0,5 h 1 m 5,0 h 1 m 1,0 h 1 m 0,0 h 1 m 0,0 h 1 m 5,0 h 1 m 1,0 h 1 m 5,0 h 1 M 0,6 h 1 m 0,0 h 1 m 0,0 h 1 m 0,0 h 1 m 0,0 h 1 m 0,0 h 1 m 0,0 h 1 m 1,0 h 1 m 1,0 h 1 m 1,0 h 1 m 1,0 h 1 m 1,0 h 1 m 1,0 h 1 m 0,0 h 1 m 0,0 h 1 m 0,0 h 1 m 0,0 h 1 m 0,0 h 1 m 0,0 h 1 M 10,7 h 1 m 0,0 h 1 m 1,0 h 1 m 1,0 h 1 m 0,0 h 1 M 0,8 h 1 m 0,0 h 1 m 2,0 h 1 m 0,0 h 1 m 0,0 h 1 m 3,0 h 1 m 1,0 h 1 m 0,0 h 1 m 1,0 h 1 m 3,0 h 1 m 1,0 h 1 m 0,0 h 1 m 0,0 h 1 m 0,0 h 1 M 0,9 h 1 m 0,0 h 1 m 2,0 h 1 m 2,0 h 1 m 5,0 h 1 m 0,0 h 1 m 0,0 h 1 m 0,0 h 1 m 0,0 h 1 m 2,0 h 1 m 0,0 h 1 m 1,0 h 1 M 3,10 h 1 m 0,0 h 1 m 1,0 h 1 m 0,0 h 1 m 0,0 h 1 m 0,0 h 1 m 0,0 h 1 m 4,0 h 1 m 0,0 h 1 m 3,0 h 1 m 0,0 h 1 m 0,0 h 1 M 1,11 h 1 m 1,0 h 1 m 0,0 h 1 m 2,0 h 1 m 0,0 h 1 m 0,0 h 1 m 2,0 h 1 m 1,0 h 1 m 4,0 h 1 m 0,0 h 1 m 1,0 h 1 m 0,0 h 1 M 0,12 h 1 m 1,0 h 1 m 3,0 h 1 m 0,0 h 1 m 3,0 h 1 m 1,0 h 1 m 0,0 h 1 m 1,0 h 1 m 0,0 h 1 m 0,0 h 1 m 0,0 h 1 m 1,0 h 1 m 0,0 h 1 m 0,0 h 1 m 0,0 h 1 M 0,13 h 1 m 1,0 h 1 m 1,0 h 1 m 0,0 h 1 m 4,0 h 1 m 1,0 h 1 m 2,0 h 1 m 0,0 h 1 m 0,0 h 1 m 2,0 h 1 m 2,0 h 1 M 2,14 h 1 m 1,0 h 1 m 1,0 h 1 m 0,0 h 1 m 3,0 h 1 m 0,0 h 1 m 0,0 h 1 m 0,0 h 1 m 0,0 h 1 m 0,0 h 1 m 2,0 h 1 m 0,0 h 1 m 0,0 h 1 m 0,0 h 1 M 3,15 h 1 m 3,0 h 1 m 1,0 h 1 m 1,0 h 1 m 1,0 h 1 m 3,0 h 1 m 1,0 h 1 m 0,0 h 1 m 1,0 h 1 m 0,0 h 1 M 0,16 h 1 m 0,0 h 1 m 2,0 h 1 m 0,0 h 1 m 0,0 h 1 m 1,0 h 1 m 3,0 h 1 m 0,0 h 1 m 1,0 h 1 m 0,0 h 1 m 0,0 h 1 m 0,0 h 1 m 0,0 h 1 m 0,0 h 1 m 0,0 h 1 m 0,0 h 1 M 8,17 h 1 m 1,0 h 1 m 2,0 h 1 m 0,0 h 1 m 1,0 h 1 m 3,0 h 1 M 0,18 h 1 m 0,0 h 1 m 0,0 h 1 m 0,0 h 1 m 0,0 h 1 m 0,0 h 1 m 0,0 h 1 m 2,0 h 1 m 0,0 h 1 m 5,0 h 1 m 1,0 h 1 m 1,0 h 1 M 0,19 h 1 m 5,0 h 1 m 1,0 h 1 m 3,0 h 1 m 1,0 h 1 m 0,0 h 1 m 0,0 h 1 m 3,0 h 1 m 0,0 h 1 m 0,0 h 1 m 0,0 h 1 m 0,0 h 1 M 0,20 h 1 m 1,0 h 1 m 0,0 h 1 m 0,0 h 1 m 1,0 h 1 m 1,0 h 1 m 0,0 h 1 m 1,0 h 1 m 1,0 h 1 m 0,0 h 1 m 1,0 h 1 m 0,0 h 1 m 0,0 h 1 m 0,0 h 1 m 0,0 h 1 m 0,0 h 1 m 0,0 h 1 m 1,0 h 1 M 0,21 h 1 m 1,0 h 1 m 0,0 h 1 m 0,0 h 1 m 1,0 h 1 m 2,0 h 1 m 0,0 h 1 m 1,0 h 1 m 2,0 h 1 m 1,0 h 1 m 0,0 h 1 m 0,0 h 1 m 2,0 h 1 m 0,0 h 1 m 0,0 h 1 M 0,22 h 1 m 1,0 h 1 m 0,0 h 1 m 0,0 h 1 m 1,0 h 1 m 4,0 h 1 m 0,0 h 1 m 0,0 h 1 m 0,0 h 1 m 0,0 h 1 m 2,0 h 1 m 2,0 h 1 m 1,0 h 1 M 0,23 h 1 m 5,0 h 1 m 1,0 h 1 m 0,0 h 1 m 1,0 h 1 m 1,0 h 1 m 1,0 h 1 m 1,0 h 1 m 1,0 h 1 m 0,0 h 1 m 0,0 h 1 m 0,0 h 1 m 0,0 h 1 M 0,24 h 1 m 0,0 h 1 m 0,0 h 1 m 0,0 h 1 m 0,0 h 1 m 0,0 h 1 m 0,0 h 1 m 1,0 h 1 m 3,0 h 1 m 0,0 h 1 m 1,0 h 1 m 6,0 h 1 m 0,0 h 1 m 0,0 h 1"
         id="path260" />
    </g>
    <g
       id="g1457"
       inkscape:label="transparence"
       style="opacity:0.88;stroke:none"
       transform="matrix(1.8921383,0,0,1.9006861,-183.20514,-155.32814)">
      <rect
         style="fill:#ffffff;fill-opacity:1;stroke:none;stroke-width:0.173072;stroke-linecap:round;stroke-linejoin:bevel;stroke-opacity:1"
         id="rect1448"
         width="46.753983"
         height="16.187838"
         x="99.873848"
         y="84.757889"
         inkscape:label="haut" />
      <rect
         style="fill:#ffffff;fill-opacity:1;stroke:none;stroke-width:0.16535;stroke-linecap:round;stroke-linejoin:bevel;stroke-opacity:1"
         id="rect1445"
         width="46.753983"
         height="22.277504"
         x="99.873848"
         y="109.03226"
         inkscape:label="bas" />
      <rect
         style="display:inline;fill:#ffffff;fill-opacity:1;stroke:none;stroke-width:0.216382;stroke-linecap:round;stroke-linejoin:bevel;stroke-opacity:1"
         id="rect1451"
         width="10.160187"
         height="8.4089365"
         x="118.17338"
         y="100.82451"
         inkscape:label="milieu" />
    </g>
    <g
       id="g1391"
       inkscape:label="text"
       style="display:inline"
       transform="matrix(1.8921383,0,0,1.8939752,-183.20514,-154.75043)">
      <path
         id="path261"
         style="font-weight:bold;font-size:14.6886px;line-height:20.8185px;font-family:sans-serif;-inkscape-font-specification:'sans-serif Bold';text-align:center;text-anchor:middle;fill:#277767;stroke-width:0.147812;stroke-linecap:round;stroke-linejoin:bevel;stroke-opacity:0.941176"
         d="m 142.09472,86.840431 h 2.43247 v 12.155531 h -2.43247 z m -6.50765,5.389794 q 0.76449,0 1.09304,-0.366377 0.33485,-0.366375 0.33485,-1.204969 0,-0.830451 -0.33485,-1.188685 -0.32855,-0.358234 -1.09304,-0.358234 h -1.02353 v 3.118265 z m -1.02353,2.165686 v 4.600051 h -2.43247 V 86.840431 h 3.71505 q 1.86384,0 2.72942,0.806026 0.87189,0.806027 0.87189,2.548347 0,1.204968 -0.4549,1.978428 -0.44858,0.77346 -1.35839,1.139836 0.49912,0.14655 0.89085,0.667618 0.39805,0.512925 0.8024,1.563203 l 1.32049,3.452073 h -2.59043 l -1.1499,-3.020564 q -0.34749,-0.911868 -0.70762,-1.245678 -0.35381,-0.333809 -0.94771,-0.333809 z m -12.38348,-7.55548 h 8.6937 v 2.369229 h -3.12745 v 9.786302 h -2.43248 V 89.20966 h -3.13377 z m -9.38239,0 h 2.43248 v 7.286805 q 0,1.506212 0.37908,2.157546 0.38541,0.643192 1.25098,0.643192 0.8719,0 1.25098,-0.643192 0.38542,-0.651334 0.38542,-2.157546 v -7.286805 h 2.43246 v 7.286805 q 0,2.580913 -1.00457,3.842874 -1.00459,1.261961 -3.06429,1.261961 -2.05338,0 -3.05795,-1.261961 -1.00459,-1.261961 -1.00459,-3.842874 z m -10.82922,0 h 2.71678 l 3.43072,8.337082 v -8.337082 h 2.30612 v 12.155531 h -2.71679 l -3.43073,-8.337083 v 8.337083 h -2.3061 z"
         inkscape:label="NUTRI" />
      <ellipse
         style="fill:#ffcc00;fill-opacity:1;stroke:none;stroke-width:0.234432;stroke-linecap:round;stroke-linejoin:bevel;stroke-opacity:0.941176"
         id="path750"
         cx="123.24781"
         cy="104.662"
         rx="2.6209209"
         ry="2.4022222"
         inkscape:label="point" />
      <path
         id="path249"
         d="m 129.50874,111.28877 h 4.73779 l 5.98284,12.55893 v -12.55893 h 4.02162 v 18.31101 h -4.73779 l -5.98285,-12.55893 v 12.55893 h -4.02161 z m -8.39582,0 h 4.24198 v 18.31101 h -4.24198 z m -19.42497,0 h 4.26402 l 4.36318,13.51556 4.35216,-13.51556 h 4.26401 l -6.09302,18.31101 h -5.05732 z"
         inkscape:label="VIN"
         style="font-weight:bold;font-size:23.8073px;line-height:16.8713px;-inkscape-font-specification:'sans-serif Bold';text-align:center;text-anchor:middle;fill:#277767;stroke-width:0.171124;stroke-linecap:round;stroke-linejoin:bevel;stroke-opacity:0.941176" />
    </g>
  </g>
</svg>
